<?xml version="1.0" encoding="utf-8"?>
<!-- Generator: Adobe Illustrator 22.0.1, SVG Export Plug-In . SVG Version: 6.00 Build 0)  -->
<svg version="1.1" id="Layer_1" xmlns="http://www.w3.org/2000/svg" xmlns:xlink="http://www.w3.org/1999/xlink" x="0px" y="0px"
	 viewBox="0 0 1300.2 566.3" style="enable-background:new 0 0 1300.2 566.3;" xml:space="preserve">
<style type="text/css">
	.st0{fill:#292C2D;}
	.st1{fill:#6BA151;}
	.st2{fill:#3E3293;}
</style>
<path class="st0" d="M232.8,505.9c-0.1,0.3-0.3,0.5-0.5,0.6c-0.2,0.1-0.4,0.2-0.7,0.2h-3.8c-0.4,0-0.6-0.1-0.8-0.2
	c-0.1-0.1-0.2-0.3-0.2-0.5c0-0.1,0-0.2,0.1-0.4c0-0.2,0.1-0.3,0.1-0.3l3.5-8.9l-8.9-21.7c0,0,0,0,0-0.1v-0.2
	c-0.1-0.2-0.1-0.3-0.1-0.5c0-0.2,0.1-0.4,0.2-0.5c0.2-0.1,0.4-0.2,0.7-0.2h3.6c0.6,0,1,0.3,1.2,0.8l0.4,0.9c0.3,0.7,0.6,1.6,0.9,2.5
	c0.3,0.9,0.7,1.9,1,2.9c0.4,1,0.7,2,1.1,3c0.4,1,0.7,1.9,1,2.8c0.3,0.9,0.6,1.7,0.9,2.4c0.3,0.7,0.5,1.2,0.6,1.6l5.9-16
	c0.1-0.3,0.3-0.5,0.5-0.6c0.2-0.1,0.4-0.2,0.7-0.2h3.7c0.4,0,0.6,0.1,0.8,0.2c0.1,0.1,0.2,0.3,0.2,0.5c0,0.1,0,0.2-0.1,0.4
	c0,0.2-0.1,0.3-0.1,0.3L232.8,505.9z"/>
<path class="st0" d="M251.2,486c0-1.2,0.2-2.4,0.5-3.5c0.3-1.1,0.8-2.2,1.3-3.1c0.6-1,1.3-1.8,2.1-2.6c0.8-0.8,1.7-1.5,2.6-2
	c1-0.6,2-1,3.1-1.3c1.1-0.3,2.3-0.5,3.5-0.5c1.2,0,2.3,0.2,3.5,0.5c1.1,0.3,2.2,0.7,3.1,1.3c1,0.6,1.8,1.2,2.6,2
	c0.8,0.8,1.5,1.7,2.1,2.6c0.6,1,1,2,1.3,3.1c0.3,1.1,0.5,2.3,0.5,3.5c0,1.2-0.2,2.4-0.5,3.5c-0.3,1.1-0.8,2.2-1.3,3.1
	c-0.6,1-1.3,1.9-2.1,2.6c-0.8,0.8-1.7,1.5-2.6,2c-1,0.6-2,1-3.1,1.3c-1.1,0.3-2.3,0.5-3.5,0.5c-1.2,0-2.4-0.2-3.5-0.5
	c-1.1-0.3-2.1-0.7-3.1-1.3c-1-0.6-1.9-1.2-2.6-2c-0.8-0.8-1.5-1.7-2.1-2.6c-0.6-1-1-2-1.3-3.1C251.4,488.3,251.2,487.2,251.2,486
	 M256.8,486c0,1.1,0.2,2.1,0.6,3c0.4,1,0.9,1.8,1.6,2.5c0.7,0.7,1.5,1.3,2.4,1.7c0.9,0.4,1.9,0.6,3,0.6c1.1,0,2-0.2,2.9-0.6
	c0.9-0.4,1.7-1,2.3-1.7c0.6-0.7,1.2-1.5,1.5-2.5c0.4-1,0.5-2,0.5-3c0-1.1-0.2-2.1-0.5-3c-0.4-1-0.9-1.8-1.5-2.5
	c-0.7-0.7-1.4-1.3-2.3-1.7c-0.9-0.4-1.9-0.6-2.9-0.6c-1.1,0-2.1,0.2-3,0.6c-0.9,0.4-1.7,1-2.4,1.7c-0.7,0.7-1.2,1.6-1.6,2.5
	C257,483.9,256.8,484.9,256.8,486"/>
<path class="st0" d="M306.3,497.8c0,0.1-0.1,0.3-0.2,0.3c-0.1,0.1-0.2,0.1-0.4,0.2c-0.1,0-0.3,0.1-0.5,0.1c-0.2,0-0.3,0-0.5,0h-2
	c-0.4,0-0.7-0.1-0.9-0.4c-0.2-0.2-0.3-0.5-0.4-0.8l-0.2-1.8c-0.3,0.4-0.7,0.9-1.1,1.3c-0.4,0.4-1,0.8-1.6,1.1
	c-0.6,0.3-1.3,0.6-2.1,0.7c-0.8,0.2-1.7,0.3-2.6,0.3c-1.6,0-3-0.3-4.2-0.8c-1.2-0.6-2.2-1.3-3-2.3c-0.8-1-1.4-2.1-1.9-3.5
	c-0.4-1.3-0.6-2.8-0.6-4.3v-13.3c0-0.5,0.1-0.8,0.3-1.1c0.2-0.3,0.5-0.4,1-0.4h3c0.5,0,0.9,0.1,1.1,0.3c0.2,0.2,0.3,0.5,0.3,1.1
	v13.3c0,0.7,0.1,1.4,0.3,2.1c0.2,0.7,0.5,1.3,1,1.8c0.4,0.5,1,1,1.6,1.3c0.7,0.3,1.4,0.5,2.3,0.5c0.6,0,1.2-0.1,1.9-0.3
	c0.7-0.2,1.3-0.5,1.8-1c0.5-0.4,1-1,1.4-1.6c0.4-0.7,0.5-1.4,0.5-2.3v-12.9c0-0.2,0-0.5,0-0.7c0-0.2,0.1-0.5,0.2-0.7
	c0.1-0.2,0.2-0.4,0.4-0.5c0.2-0.1,0.4-0.2,0.6-0.2h3.3c0.4,0,0.8,0.1,1,0.3c0.2,0.2,0.3,0.5,0.3,0.9v22.9
	C306.6,497.5,306.5,497.7,306.3,497.8"/>
<path class="st0" d="M314.5,474.4c0-0.4,0.1-0.7,0.4-0.9c0.3-0.2,0.5-0.3,0.8-0.3h2.5c0.3,0,0.6,0.1,0.8,0.3
	c0.2,0.2,0.3,0.4,0.4,0.7c0.1,0.3,0.2,0.6,0.2,0.9c0,0.3,0.1,0.6,0.1,0.9c0.3-0.4,0.6-0.8,1-1.2c0.4-0.4,0.8-0.7,1.2-1
	c0.5-0.3,1-0.6,1.6-0.7c0.6-0.2,1.3-0.3,2-0.3c0.7,0,1.3,0,1.8,0.1c0.5,0.1,1,0.2,1.5,0.4c0.5,0.2,1,0.4,1.4,0.7
	c0.5,0.3,1,0.6,1.5,1c0.2,0.2,0.4,0.3,0.6,0.5c0.2,0.2,0.3,0.4,0.3,0.7c0,0.1,0,0.2-0.1,0.3c0,0.1-0.1,0.2-0.2,0.4l-1.6,2.6
	c-0.1,0.1-0.2,0.2-0.4,0.3s-0.3,0.1-0.4,0.1c-0.2,0-0.4-0.1-0.6-0.2c-0.4-0.2-0.8-0.5-1.2-0.7c-0.4-0.2-0.7-0.4-1.1-0.5
	c-0.3-0.2-0.7-0.3-1.1-0.4c-0.4-0.1-0.8-0.1-1.2-0.1c-1.2,0-2.2,0.4-3,1.1c-0.8,0.8-1.4,1.8-1.6,3.1v15c0,0.8-0.4,1.2-1.2,1.2h-3.3
	c-0.8,0-1.2-0.4-1.2-1.2V474.4z"/>
<path class="st0" d="M353.5,474.4c0-0.4,0.1-0.7,0.4-0.9c0.3-0.2,0.5-0.3,0.8-0.3h2.5c0.3,0,0.6,0.1,0.8,0.3
	c0.2,0.2,0.3,0.4,0.4,0.7c0.1,0.3,0.2,0.6,0.2,0.9c0,0.3,0.1,0.6,0.1,0.9c0.3-0.4,0.6-0.8,1-1.2c0.4-0.4,0.8-0.7,1.2-1
	c0.5-0.3,1-0.6,1.6-0.7c0.6-0.2,1.3-0.3,2-0.3c0.7,0,1.3,0,1.8,0.1c0.5,0.1,1,0.2,1.5,0.4c0.5,0.2,1,0.4,1.4,0.7
	c0.5,0.3,1,0.6,1.5,1c0.2,0.2,0.4,0.3,0.6,0.5c0.2,0.2,0.3,0.4,0.3,0.7c0,0.1,0,0.2-0.1,0.3c0,0.1-0.1,0.2-0.2,0.4l-1.6,2.6
	c-0.1,0.1-0.2,0.2-0.4,0.3c-0.1,0.1-0.3,0.1-0.4,0.1c-0.2,0-0.4-0.1-0.6-0.2c-0.4-0.2-0.8-0.5-1.2-0.7c-0.4-0.2-0.7-0.4-1.1-0.5
	c-0.3-0.2-0.7-0.3-1.1-0.4c-0.4-0.1-0.8-0.1-1.2-0.1c-1.2,0-2.2,0.4-3,1.1c-0.8,0.8-1.4,1.8-1.6,3.1v15c0,0.8-0.4,1.2-1.2,1.2h-3.3
	c-0.8,0-1.2-0.4-1.2-1.2V474.4z"/>
<path class="st0" d="M398.3,495.8c-1.2,1-2.4,1.8-3.8,2.4c-1.4,0.6-2.9,0.9-4.6,0.9c-1.8,0-3.5-0.3-5.1-1c-1.6-0.7-3-1.6-4.2-2.8
	c-1.2-1.2-2.2-2.6-2.9-4.2c-0.7-1.6-1.1-3.3-1.1-5.1c0-1.2,0.1-2.3,0.4-3.4c0.3-1.1,0.7-2.1,1.2-3.1c0.5-1,1.2-1.9,2-2.7
	c0.8-0.8,1.6-1.5,2.6-2.1c1-0.6,2-1,3.1-1.3c1.1-0.3,2.3-0.5,3.5-0.5c1,0,2,0.1,3,0.4c1,0.2,1.9,0.6,2.8,1c0.9,0.5,1.7,1,2.5,1.6
	c0.8,0.6,1.4,1.4,2,2.2c0.8,1.1,1.4,2.3,1.8,3.6c0.4,1.3,0.6,2.7,0.6,4.3c0,0.4,0,0.7-0.1,1c0,0.3-0.1,0.5-0.2,0.6
	c-0.1,0.2-0.3,0.3-0.6,0.3c-0.3,0.1-0.6,0.1-1.1,0.1h-17.7c0.2,1,0.5,1.8,1,2.5c0.5,0.7,1.1,1.4,1.7,1.9c0.7,0.5,1.4,0.9,2.2,1.2
	c0.8,0.3,1.6,0.4,2.4,0.4c0.6,0,1.2-0.1,1.7-0.2c0.6-0.1,1.1-0.3,1.5-0.5c0.5-0.2,0.9-0.4,1.3-0.7c0.4-0.3,0.8-0.5,1.1-0.8
	c0,0,0,0,0,0c0.2-0.1,0.3-0.3,0.5-0.3c0.1-0.1,0.3-0.1,0.5-0.1c0.1,0,0.3,0,0.4,0.1c0.2,0.1,0.3,0.2,0.4,0.4
	c0.4,0.4,0.7,0.8,0.9,1.1c0.3,0.3,0.5,0.5,0.6,0.7c0.2,0.2,0.3,0.4,0.4,0.5c0.1,0.1,0.1,0.3,0.1,0.4
	C399.1,495,398.8,495.4,398.3,495.8 M389.5,477.8c-0.8,0-1.5,0.1-2.3,0.4c-0.7,0.3-1.4,0.7-2,1.2c-0.6,0.5-1.2,1.1-1.6,1.7
	c-0.5,0.7-0.8,1.4-1,2.2h14.1c-0.2-0.8-0.5-1.6-1-2.2c-0.4-0.7-1-1.2-1.6-1.7c-0.6-0.5-1.3-0.9-2.1-1.1
	C391.2,477.9,390.4,477.8,389.5,477.8"/>
<path class="st0" d="M409.2,466.9c0-0.3,0.1-0.6,0.3-0.9c0.2-0.2,0.5-0.3,0.9-0.3h3.5c0.3,0,0.5,0.1,0.7,0.3
	c0.2,0.2,0.3,0.5,0.3,0.9v30.4c0,0.4-0.1,0.7-0.3,0.9c-0.2,0.2-0.5,0.3-0.9,0.3h-3.3c-0.4,0-0.7-0.1-0.9-0.3
	c-0.2-0.2-0.3-0.5-0.3-0.9V466.9z"/>
<path class="st0" d="M422.9,465.6c0-0.8,0.4-1.2,1.2-1.2h3.3c0.4,0,0.7,0.1,0.9,0.3c0.2,0.2,0.3,0.5,0.3,0.9v3
	c0,0.3-0.1,0.6-0.3,0.9c-0.2,0.3-0.5,0.4-0.9,0.4h-3.3c-0.8,0-1.2-0.4-1.2-1.3V465.6z M422.9,474.5c0-0.3,0.1-0.6,0.3-0.9
	c0.2-0.2,0.5-0.4,0.9-0.4h3.3c0.2,0,0.3,0,0.5,0.1c0.2,0.1,0.3,0.1,0.4,0.3c0.1,0.1,0.2,0.2,0.3,0.4c0.1,0.1,0.1,0.3,0.1,0.5v22.9
	c0,0.8-0.4,1.2-1.3,1.2h-3.3c-0.8,0-1.2-0.4-1.2-1.2V474.5z"/>
<path class="st0" d="M462.8,497.4c0,0.2-0.1,0.4-0.2,0.6c-0.1,0.2-0.2,0.3-0.4,0.4c-0.2,0.1-0.3,0.1-0.5,0.2c-0.2,0-0.4,0-0.6,0
	h-2.5c-0.4,0-0.7-0.1-0.9-0.3c-0.2-0.2-0.3-0.5-0.4-0.9l-0.1-1.7c-0.5,0.5-1,0.9-1.5,1.3c-0.6,0.4-1.2,0.8-1.8,1.1
	c-0.6,0.3-1.3,0.5-2.1,0.7c-0.7,0.2-1.5,0.2-2.3,0.2c-1.2,0-2.3-0.2-3.5-0.5c-1.1-0.3-2.1-0.7-3.1-1.3c-1-0.6-1.8-1.2-2.6-2
	c-0.8-0.8-1.5-1.7-2-2.6c-0.6-1-1-2-1.3-3.1c-0.3-1.1-0.5-2.3-0.5-3.5c0-1.2,0.2-2.4,0.5-3.5c0.3-1.1,0.8-2.2,1.3-3.1
	c0.6-1,1.2-1.9,2-2.6c0.8-0.8,1.7-1.5,2.6-2c1-0.6,2-1,3.1-1.3c1.1-0.3,2.3-0.5,3.5-0.5c0.8,0,1.7,0.1,2.4,0.3
	c0.8,0.2,1.5,0.4,2.2,0.8c0.7,0.3,1.3,0.7,1.9,1.2c0.6,0.5,1.1,1,1.6,1.5l0.3-2.1c0.1-0.2,0.1-0.4,0.2-0.6c0.1-0.2,0.1-0.3,0.2-0.4
	c0.1-0.1,0.2-0.2,0.3-0.2c0.1,0,0.3,0,0.5,0h2c0.2,0,0.4,0,0.6,0.1c0.2,0,0.4,0.1,0.6,0.2c0.2,0.1,0.3,0.2,0.4,0.4
	c0.1,0.2,0.2,0.3,0.2,0.6V497.4z M442.1,485.9c0,1.1,0.2,2.1,0.6,3c0.4,1,0.9,1.8,1.6,2.5c0.7,0.7,1.4,1.3,2.3,1.7
	c0.9,0.4,1.9,0.6,2.9,0.6c1.1,0,2.1-0.2,3-0.6c0.9-0.4,1.8-1,2.4-1.7c0.7-0.7,1.2-1.5,1.6-2.5c0.4-1,0.6-2,0.6-3c0-1-0.2-2.1-0.6-3
	c-0.4-1-0.9-1.8-1.6-2.5c-0.7-0.7-1.5-1.3-2.4-1.7c-0.9-0.4-1.9-0.6-3-0.6c-1.1,0-2,0.2-2.9,0.6c-0.9,0.4-1.7,1-2.3,1.7
	c-0.7,0.7-1.2,1.5-1.6,2.5C442.3,483.8,442.1,484.8,442.1,485.9"/>
<path class="st0" d="M475.9,497.4c-0.1,0.4-0.2,0.7-0.4,0.9c-0.1,0.2-0.4,0.3-0.8,0.3h-3c-0.8,0-1.3-0.4-1.3-1.2v-30.4
	c0-0.3,0.1-0.6,0.4-0.9c0.2-0.2,0.5-0.3,0.8-0.3h3.3c0.4,0,0.7,0.1,0.9,0.3c0.2,0.2,0.3,0.5,0.3,0.8v9.1c1-1,2.1-1.8,3.3-2.4
	c1.2-0.6,2.7-0.9,4.3-0.9c1.8,0,3.5,0.3,5,1c1.5,0.7,2.9,1.6,4,2.8c1.2,1.2,2.1,2.6,2.7,4.2c0.7,1.6,1,3.3,1,5.1
	c0,1.8-0.3,3.5-1,5.1c-0.6,1.6-1.5,3-2.7,4.2c-1.2,1.2-2.5,2.1-4,2.8c-1.6,0.7-3.2,1-5,1c-0.8,0-1.5-0.1-2.3-0.3
	c-0.7-0.2-1.4-0.4-2.1-0.7c-0.6-0.3-1.3-0.7-1.8-1.1c-0.6-0.4-1.1-0.8-1.5-1.3L475.9,497.4z M490.9,486c0-1.1-0.2-2.1-0.6-3
	c-0.4-1-0.9-1.8-1.6-2.5c-0.7-0.7-1.4-1.3-2.4-1.7c-0.9-0.4-1.9-0.6-2.9-0.6c-1.1,0-2.1,0.2-3,0.6c-0.9,0.4-1.8,1-2.5,1.7
	c-0.7,0.7-1.2,1.6-1.6,2.5c-0.4,1-0.6,2-0.6,3v0.1c0,1.1,0.2,2,0.6,3c0.4,0.9,1,1.7,1.7,2.4c0.7,0.7,1.5,1.2,2.4,1.6
	c0.9,0.4,1.9,0.6,3,0.6c1.1,0,2-0.2,2.9-0.6c0.9-0.4,1.7-1,2.4-1.7c0.7-0.7,1.2-1.5,1.6-2.5C490.7,488,490.9,487,490.9,486"/>
<path class="st0" d="M503.3,466.9c0-0.3,0.1-0.6,0.3-0.9c0.2-0.2,0.5-0.3,0.9-0.3h3.5c0.3,0,0.5,0.1,0.7,0.3
	c0.2,0.2,0.3,0.5,0.3,0.9v30.4c0,0.4-0.1,0.7-0.3,0.9c-0.2,0.2-0.5,0.3-0.9,0.3h-3.3c-0.4,0-0.7-0.1-0.9-0.3
	c-0.2-0.2-0.3-0.5-0.3-0.9V466.9z"/>
<path class="st0" d="M537.7,495.8c-1.2,1-2.4,1.8-3.8,2.4c-1.4,0.6-2.9,0.9-4.6,0.9c-1.8,0-3.5-0.3-5.1-1c-1.6-0.7-3-1.6-4.2-2.8
	c-1.2-1.2-2.2-2.6-2.9-4.2s-1.1-3.3-1.1-5.1c0-1.2,0.1-2.3,0.4-3.4c0.3-1.1,0.7-2.1,1.2-3.1c0.5-1,1.2-1.9,2-2.7
	c0.8-0.8,1.6-1.5,2.6-2.1c1-0.6,2-1,3.1-1.3c1.1-0.3,2.3-0.5,3.5-0.5c1,0,2,0.1,3,0.4c1,0.2,1.9,0.6,2.8,1c0.9,0.5,1.7,1,2.5,1.6
	c0.8,0.6,1.4,1.4,2,2.2c0.8,1.1,1.4,2.3,1.8,3.6c0.4,1.3,0.6,2.7,0.6,4.3c0,0.4,0,0.7-0.1,1c0,0.3-0.1,0.5-0.2,0.6
	c-0.1,0.2-0.3,0.3-0.6,0.3c-0.3,0.1-0.6,0.1-1.1,0.1h-17.7c0.2,1,0.5,1.8,1,2.5c0.5,0.7,1.1,1.4,1.7,1.9c0.7,0.5,1.4,0.9,2.2,1.2
	c0.8,0.3,1.6,0.4,2.4,0.4c0.6,0,1.2-0.1,1.7-0.2c0.6-0.1,1.1-0.3,1.5-0.5c0.5-0.2,0.9-0.4,1.3-0.7c0.4-0.3,0.8-0.5,1.1-0.8
	c0,0,0,0,0,0c0.2-0.1,0.3-0.3,0.5-0.3c0.1-0.1,0.3-0.1,0.5-0.1c0.1,0,0.3,0,0.4,0.1c0.2,0.1,0.3,0.2,0.5,0.4
	c0.4,0.4,0.7,0.8,0.9,1.1c0.3,0.3,0.5,0.5,0.6,0.7c0.2,0.2,0.3,0.4,0.4,0.5c0.1,0.1,0.1,0.3,0.1,0.4
	C538.5,495,538.2,495.4,537.7,495.8 M528.9,477.8c-0.8,0-1.5,0.1-2.3,0.4c-0.7,0.3-1.4,0.7-2,1.2c-0.6,0.5-1.2,1.1-1.6,1.7
	c-0.5,0.7-0.8,1.4-1,2.2H536c-0.2-0.8-0.5-1.6-1-2.2c-0.4-0.7-1-1.2-1.6-1.7c-0.6-0.5-1.3-0.9-2.1-1.1
	C530.6,477.9,529.8,477.8,528.9,477.8"/>
<path class="st0" d="M568.9,497.4c-0.1,0.4-0.3,0.7-0.4,0.9c-0.1,0.2-0.4,0.3-0.8,0.3h-3c-0.8,0-1.3-0.4-1.3-1.2v-30.4
	c0-0.3,0.1-0.6,0.4-0.9c0.2-0.2,0.5-0.3,0.8-0.3h3.3c0.4,0,0.7,0.1,0.9,0.3c0.2,0.2,0.3,0.5,0.3,0.8v9.1c1-1,2.1-1.8,3.3-2.4
	c1.2-0.6,2.7-0.9,4.3-0.9c1.8,0,3.5,0.3,5,1c1.5,0.7,2.9,1.6,4,2.8c1.2,1.2,2.1,2.6,2.7,4.2c0.6,1.6,1,3.3,1,5.1
	c0,1.8-0.3,3.5-1,5.1c-0.7,1.6-1.6,3-2.7,4.2c-1.2,1.2-2.5,2.1-4,2.8c-1.5,0.7-3.2,1-5,1c-0.8,0-1.5-0.1-2.3-0.3
	c-0.7-0.2-1.4-0.4-2.1-0.7c-0.6-0.3-1.3-0.7-1.8-1.1c-0.6-0.4-1.1-0.8-1.5-1.3L568.9,497.4z M583.9,486c0-1.1-0.2-2.1-0.6-3
	c-0.4-1-0.9-1.8-1.6-2.5c-0.7-0.7-1.4-1.3-2.4-1.7c-0.9-0.4-1.9-0.6-2.9-0.6c-1.1,0-2.1,0.2-3,0.6c-0.9,0.4-1.8,1-2.5,1.7
	c-0.7,0.7-1.2,1.6-1.6,2.5c-0.4,1-0.6,2-0.6,3v0.1c0,1.1,0.2,2,0.6,3c0.4,0.9,1,1.7,1.7,2.4c0.7,0.7,1.5,1.2,2.4,1.6
	c0.9,0.4,1.9,0.6,3,0.6c1.1,0,2-0.2,2.9-0.6c0.9-0.4,1.7-1,2.4-1.7c0.7-0.7,1.2-1.5,1.6-2.5C583.7,488,583.9,487,583.9,486"/>
<path class="st0" d="M618.4,497.8c0,0.1-0.1,0.3-0.2,0.3c-0.1,0.1-0.2,0.1-0.4,0.2c-0.1,0-0.3,0.1-0.5,0.1c-0.2,0-0.3,0-0.5,0h-2
	c-0.4,0-0.7-0.1-0.9-0.4c-0.2-0.2-0.3-0.5-0.4-0.8l-0.2-1.8c-0.3,0.4-0.7,0.9-1.1,1.3c-0.4,0.4-1,0.8-1.6,1.1
	c-0.6,0.3-1.3,0.6-2.1,0.7c-0.8,0.2-1.7,0.3-2.6,0.3c-1.6,0-3-0.3-4.2-0.8c-1.2-0.6-2.2-1.3-3-2.3c-0.8-1-1.4-2.1-1.9-3.5
	c-0.4-1.3-0.6-2.8-0.6-4.3v-13.3c0-0.5,0.1-0.8,0.3-1.1c0.2-0.3,0.5-0.4,1-0.4h3c0.5,0,0.9,0.1,1.1,0.3c0.2,0.2,0.3,0.5,0.3,1.1
	v13.3c0,0.7,0.1,1.4,0.3,2.1c0.2,0.7,0.5,1.3,1,1.8c0.4,0.5,1,1,1.6,1.3c0.7,0.3,1.4,0.5,2.3,0.5c0.6,0,1.2-0.1,1.9-0.3
	c0.7-0.2,1.3-0.5,1.8-1c0.5-0.4,1-1,1.4-1.6c0.4-0.7,0.5-1.4,0.5-2.3v-12.9c0-0.2,0-0.5,0-0.7c0-0.2,0.1-0.5,0.2-0.7
	c0.1-0.2,0.2-0.4,0.4-0.5c0.2-0.1,0.4-0.2,0.6-0.2h3.3c0.4,0,0.8,0.1,1,0.3c0.2,0.2,0.3,0.5,0.3,0.9v22.9
	C618.7,497.5,618.6,497.7,618.4,497.8"/>
<path class="st0" d="M629.3,491.4c0.3,0.4,0.6,0.8,1.1,1.1c0.4,0.3,0.9,0.6,1.3,0.8c0.4,0.2,0.9,0.4,1.3,0.5c0.4,0.1,0.7,0.1,1,0.1
	c0.4,0,0.8,0,1.3-0.1c0.5-0.1,1-0.2,1.4-0.4c0.4-0.2,0.8-0.5,1.1-0.8c0.3-0.4,0.5-0.8,0.5-1.3c0-0.5-0.1-1-0.4-1.3
	c-0.2-0.3-0.6-0.6-1-0.8c-0.4-0.2-0.9-0.4-1.4-0.5c-0.5-0.1-1.1-0.3-1.7-0.5c-1.4-0.4-2.6-0.8-3.6-1.3c-1-0.5-1.8-1.1-2.4-1.8
	c-0.6-0.7-1.1-1.4-1.4-2.2c-0.3-0.8-0.4-1.7-0.4-2.6c0-1.1,0.2-2.1,0.6-2.9c0.4-0.9,1-1.7,1.8-2.3c0.8-0.6,1.7-1.1,2.8-1.5
	c1.1-0.4,2.3-0.5,3.6-0.5c0.9,0,1.8,0.1,2.5,0.3c0.7,0.2,1.4,0.4,2,0.7c0.6,0.3,1.2,0.7,1.8,1.3c0.6,0.5,1.1,1.1,1.7,1.8
	c0.2,0.2,0.3,0.5,0.3,0.7c0,0.2-0.1,0.5-0.4,0.7c-0.2,0.2-0.4,0.4-0.7,0.6c-0.3,0.2-0.5,0.5-0.8,0.7c-0.3,0.2-0.5,0.4-0.8,0.6
	c-0.2,0.2-0.4,0.2-0.6,0.2c-0.3,0-0.6-0.2-0.9-0.5c-0.3-0.3-0.6-0.6-0.9-0.9c-0.3-0.3-0.6-0.5-0.9-0.6c-0.3-0.2-0.7-0.3-1-0.4
	c-0.4-0.1-0.8-0.1-1.2-0.1c-0.4,0-0.7,0.1-1.1,0.2c-0.4,0.1-0.7,0.3-1.1,0.5c-0.3,0.2-0.6,0.5-0.8,0.8c-0.2,0.3-0.3,0.6-0.3,1
	c0,0.4,0.1,0.8,0.4,1.1c0.3,0.3,0.6,0.6,1,0.8c0.4,0.2,0.9,0.4,1.4,0.6c0.5,0.1,1,0.3,1.4,0.4c1.2,0.3,2.3,0.7,3.4,1.2
	c1,0.5,1.9,1,2.6,1.6c0.7,0.6,1.3,1.4,1.7,2.3c0.4,0.9,0.6,1.9,0.6,3.1c0,1.2-0.2,2.3-0.7,3.3c-0.5,1-1.2,1.8-2,2.5
	c-0.9,0.7-1.9,1.2-3.1,1.6c-1.2,0.4-2.5,0.5-3.9,0.5c-0.8,0-1.7-0.1-2.6-0.3c-0.9-0.2-1.7-0.5-2.5-0.8c-0.8-0.4-1.5-0.9-2.2-1.5
	c-0.7-0.6-1.2-1.3-1.7-2.1c-0.2-0.3-0.3-0.6-0.3-0.9c0-0.2,0-0.3,0.1-0.4c0.1-0.1,0.2-0.2,0.3-0.4l2.2-1.7c0.2-0.1,0.4-0.2,0.5-0.2
	c0.2,0,0.3,0.1,0.5,0.2C629,491,629.1,491.2,629.3,491.4"/>
<path class="st0" d="M650.9,465.6c0-0.8,0.4-1.2,1.2-1.2h3.3c0.4,0,0.7,0.1,0.9,0.3c0.2,0.2,0.3,0.5,0.3,0.9v3
	c0,0.3-0.1,0.6-0.3,0.9c-0.2,0.3-0.5,0.4-0.9,0.4h-3.3c-0.8,0-1.2-0.4-1.2-1.3V465.6z M650.9,474.5c0-0.3,0.1-0.6,0.3-0.9
	c0.2-0.2,0.5-0.4,0.9-0.4h3.3c0.2,0,0.3,0,0.5,0.1c0.2,0.1,0.3,0.1,0.4,0.3c0.1,0.1,0.2,0.2,0.3,0.4c0.1,0.1,0.1,0.3,0.1,0.5v22.9
	c0,0.8-0.4,1.2-1.3,1.2h-3.3c-0.8,0-1.2-0.4-1.2-1.2V474.5z"/>
<path class="st0" d="M665.7,473.8c0.2-0.2,0.3-0.3,0.5-0.4c0.1-0.1,0.3-0.2,0.5-0.2c0.2,0,0.4,0,0.6,0h2c0.4,0,0.7,0.1,0.9,0.4
	c0.2,0.3,0.3,0.5,0.4,0.8l0.2,2.1c0.3-0.4,0.7-0.9,1.1-1.3c0.4-0.4,1-0.8,1.6-1.2c0.6-0.3,1.3-0.6,2.1-0.8c0.8-0.2,1.7-0.3,2.7-0.3
	c1.6,0,3,0.3,4.2,0.8c1.2,0.6,2.3,1.3,3.1,2.3c0.8,1,1.5,2.1,1.9,3.5c0.4,1.3,0.6,2.8,0.6,4.3v13.3c0,0.5-0.1,0.8-0.3,1.1
	c-0.2,0.2-0.6,0.4-1,0.4h-3c-0.5,0-0.9-0.1-1.1-0.3c-0.2-0.2-0.3-0.6-0.3-1.1v-13.3c0-0.7-0.1-1.4-0.4-2.1c-0.2-0.7-0.6-1.3-1-1.8
	c-0.5-0.5-1-1-1.7-1.3c-0.7-0.3-1.5-0.5-2.4-0.5c-0.6,0-1.2,0.1-1.9,0.4c-0.7,0.2-1.3,0.6-1.8,1c-0.5,0.5-1,1-1.4,1.6
	c-0.4,0.6-0.5,1.4-0.6,2.2v12.9c0,0.3,0,0.5,0,0.8c0,0.3-0.1,0.5-0.2,0.7c-0.1,0.2-0.2,0.4-0.4,0.5c-0.2,0.1-0.4,0.2-0.6,0.2h-3.3
	c-0.4,0-0.8-0.1-1-0.3c-0.2-0.2-0.3-0.5-0.3-0.9v-22.9C665.5,474.2,665.6,474,665.7,473.8"/>
<path class="st0" d="M715.6,495.8c-1.2,1-2.4,1.8-3.8,2.4c-1.4,0.6-2.9,0.9-4.6,0.9c-1.8,0-3.5-0.3-5.1-1c-1.6-0.7-3-1.6-4.2-2.8
	c-1.2-1.2-2.2-2.6-2.9-4.2c-0.7-1.6-1.1-3.3-1.1-5.1c0-1.2,0.1-2.3,0.4-3.4c0.3-1.1,0.7-2.1,1.2-3.1c0.5-1,1.2-1.9,2-2.7
	c0.8-0.8,1.6-1.5,2.6-2.1c1-0.6,2-1,3.1-1.3c1.1-0.3,2.3-0.5,3.5-0.5c1,0,2,0.1,3,0.4c1,0.2,1.9,0.6,2.8,1c0.9,0.5,1.7,1,2.5,1.6
	c0.8,0.6,1.4,1.4,2,2.2c0.8,1.1,1.4,2.3,1.8,3.6c0.4,1.3,0.6,2.7,0.6,4.3c0,0.4,0,0.7-0.1,1c0,0.3-0.1,0.5-0.2,0.6
	c-0.1,0.2-0.3,0.3-0.6,0.3c-0.3,0.1-0.6,0.1-1.1,0.1h-17.7c0.2,1,0.5,1.8,1,2.5c0.5,0.7,1.1,1.4,1.7,1.9c0.7,0.5,1.4,0.9,2.2,1.2
	c0.8,0.3,1.6,0.4,2.4,0.4c0.6,0,1.2-0.1,1.7-0.2c0.6-0.1,1.1-0.3,1.5-0.5c0.5-0.2,0.9-0.4,1.3-0.7c0.4-0.3,0.8-0.5,1.1-0.8
	c0,0,0,0,0,0c0.2-0.1,0.3-0.3,0.5-0.3c0.1-0.1,0.3-0.1,0.5-0.1c0.1,0,0.3,0,0.4,0.1c0.2,0.1,0.3,0.2,0.4,0.4
	c0.4,0.4,0.7,0.8,0.9,1.1c0.3,0.3,0.5,0.5,0.6,0.7c0.2,0.2,0.3,0.4,0.4,0.5c0.1,0.1,0.1,0.3,0.1,0.4
	C716.4,495,716.1,495.4,715.6,495.8 M706.8,477.8c-0.8,0-1.5,0.1-2.3,0.4c-0.7,0.3-1.4,0.7-2,1.2c-0.6,0.5-1.2,1.1-1.6,1.7
	c-0.5,0.7-0.8,1.4-1,2.2h14.1c-0.2-0.8-0.5-1.6-1-2.2c-0.4-0.7-1-1.2-1.6-1.7c-0.6-0.5-1.3-0.9-2.1-1.1
	C708.5,477.9,707.7,477.8,706.8,477.8"/>
<path class="st0" d="M729.2,491.4c0.3,0.4,0.6,0.8,1.1,1.1c0.4,0.3,0.9,0.6,1.3,0.8c0.4,0.2,0.9,0.4,1.3,0.5c0.4,0.1,0.7,0.1,1,0.1
	c0.4,0,0.8,0,1.3-0.1c0.5-0.1,1-0.2,1.4-0.4c0.4-0.2,0.8-0.5,1.1-0.8c0.3-0.4,0.5-0.8,0.5-1.3c0-0.5-0.1-1-0.4-1.3
	c-0.2-0.3-0.6-0.6-1-0.8c-0.4-0.2-0.9-0.4-1.4-0.5c-0.5-0.1-1.1-0.3-1.7-0.5c-1.4-0.4-2.6-0.8-3.6-1.3c-1-0.5-1.8-1.1-2.4-1.8
	c-0.6-0.7-1.1-1.4-1.4-2.2c-0.3-0.8-0.4-1.7-0.4-2.6c0-1.1,0.2-2.1,0.6-2.9c0.4-0.9,1-1.7,1.8-2.3c0.8-0.6,1.7-1.1,2.8-1.5
	c1.1-0.4,2.3-0.5,3.6-0.5c0.9,0,1.8,0.1,2.5,0.3c0.7,0.2,1.4,0.4,2,0.7c0.6,0.3,1.2,0.7,1.8,1.3c0.6,0.5,1.1,1.1,1.7,1.8
	c0.2,0.2,0.3,0.5,0.3,0.7c0,0.2-0.1,0.5-0.4,0.7c-0.2,0.2-0.4,0.4-0.7,0.6c-0.3,0.2-0.5,0.5-0.8,0.7c-0.3,0.2-0.5,0.4-0.8,0.6
	c-0.2,0.2-0.4,0.2-0.6,0.2c-0.3,0-0.6-0.2-0.9-0.5c-0.3-0.3-0.6-0.6-0.9-0.9c-0.3-0.3-0.6-0.5-0.9-0.6c-0.3-0.2-0.7-0.3-1-0.4
	c-0.4-0.1-0.8-0.1-1.2-0.1c-0.4,0-0.7,0.1-1.1,0.2c-0.4,0.1-0.7,0.3-1.1,0.5c-0.3,0.2-0.6,0.5-0.8,0.8c-0.2,0.3-0.3,0.6-0.3,1
	c0,0.4,0.1,0.8,0.4,1.1c0.3,0.3,0.6,0.6,1,0.8c0.4,0.2,0.9,0.4,1.4,0.6c0.5,0.1,0.9,0.3,1.4,0.4c1.2,0.3,2.3,0.7,3.4,1.2
	c1,0.5,1.9,1,2.6,1.6c0.7,0.6,1.3,1.4,1.7,2.3c0.4,0.9,0.6,1.9,0.6,3.1c0,1.2-0.2,2.3-0.7,3.3c-0.5,1-1.2,1.8-2,2.5
	c-0.9,0.7-1.9,1.2-3.1,1.6c-1.2,0.4-2.5,0.5-3.9,0.5c-0.8,0-1.7-0.1-2.5-0.3c-0.9-0.2-1.7-0.5-2.5-0.8c-0.8-0.4-1.5-0.9-2.2-1.5
	c-0.7-0.6-1.2-1.3-1.7-2.1c-0.2-0.3-0.3-0.6-0.3-0.9c0-0.2,0-0.3,0.1-0.4c0.1-0.1,0.2-0.2,0.4-0.4l2.2-1.7c0.2-0.1,0.4-0.2,0.5-0.2
	c0.2,0,0.4,0.1,0.5,0.2C728.8,491,729,491.2,729.2,491.4"/>
<path class="st0" d="M753.4,491.4c0.3,0.4,0.6,0.8,1.1,1.1c0.4,0.3,0.9,0.6,1.3,0.8c0.4,0.2,0.9,0.4,1.3,0.5c0.4,0.1,0.7,0.1,1,0.1
	c0.4,0,0.8,0,1.3-0.1c0.5-0.1,1-0.2,1.4-0.4c0.4-0.2,0.8-0.5,1.1-0.8c0.3-0.4,0.5-0.8,0.5-1.3c0-0.5-0.1-1-0.4-1.3
	c-0.2-0.3-0.6-0.6-1-0.8c-0.4-0.2-0.9-0.4-1.4-0.5c-0.5-0.1-1.1-0.3-1.7-0.5c-1.4-0.4-2.6-0.8-3.6-1.3c-1-0.5-1.8-1.1-2.4-1.8
	c-0.6-0.7-1.1-1.4-1.4-2.2c-0.3-0.8-0.4-1.7-0.4-2.6c0-1.1,0.2-2.1,0.6-2.9c0.4-0.9,1-1.7,1.8-2.3c0.8-0.6,1.7-1.1,2.8-1.5
	c1.1-0.4,2.3-0.5,3.6-0.5c0.9,0,1.8,0.1,2.5,0.3c0.7,0.2,1.4,0.4,2,0.7c0.6,0.3,1.2,0.7,1.8,1.3c0.6,0.5,1.1,1.1,1.7,1.8
	c0.2,0.2,0.3,0.5,0.3,0.7c0,0.2-0.1,0.5-0.4,0.7c-0.2,0.2-0.4,0.4-0.7,0.6c-0.3,0.2-0.5,0.5-0.8,0.7c-0.3,0.2-0.5,0.4-0.8,0.6
	c-0.2,0.2-0.4,0.2-0.6,0.2c-0.3,0-0.6-0.2-0.9-0.5c-0.3-0.3-0.6-0.6-0.9-0.9c-0.3-0.3-0.6-0.5-0.9-0.6c-0.3-0.2-0.7-0.3-1-0.4
	c-0.4-0.1-0.8-0.1-1.2-0.1c-0.4,0-0.7,0.1-1.1,0.2c-0.4,0.1-0.7,0.3-1.1,0.5c-0.3,0.2-0.6,0.5-0.8,0.8c-0.2,0.3-0.3,0.6-0.3,1
	c0,0.4,0.1,0.8,0.4,1.1c0.3,0.3,0.6,0.6,1,0.8c0.4,0.2,0.9,0.4,1.4,0.6c0.5,0.1,0.9,0.3,1.4,0.4c1.2,0.3,2.3,0.7,3.4,1.2
	c1,0.5,1.9,1,2.6,1.6c0.7,0.6,1.3,1.4,1.7,2.3c0.4,0.9,0.6,1.9,0.6,3.1c0,1.2-0.2,2.3-0.7,3.3c-0.5,1-1.2,1.8-2,2.5
	c-0.9,0.7-1.9,1.2-3.1,1.6c-1.2,0.4-2.5,0.5-3.9,0.5c-0.8,0-1.7-0.1-2.5-0.3c-0.9-0.2-1.7-0.5-2.5-0.8c-0.8-0.4-1.5-0.9-2.2-1.5
	c-0.7-0.6-1.2-1.3-1.7-2.1c-0.2-0.3-0.3-0.6-0.3-0.9c0-0.2,0-0.3,0.1-0.4c0.1-0.1,0.2-0.2,0.4-0.4l2.2-1.7c0.2-0.1,0.4-0.2,0.5-0.2
	c0.2,0,0.4,0.1,0.5,0.2C753.1,491,753.2,491.2,753.4,491.4"/>
<path class="st0" d="M815.2,497.4c0,0.2-0.1,0.4-0.2,0.6c-0.1,0.2-0.2,0.3-0.4,0.4c-0.2,0.1-0.3,0.1-0.5,0.2c-0.2,0-0.4,0-0.6,0
	h-2.5c-0.4,0-0.7-0.1-0.9-0.3c-0.2-0.2-0.3-0.5-0.4-0.9l-0.1-1.7c-0.5,0.5-1,0.9-1.5,1.3c-0.6,0.4-1.2,0.8-1.8,1.1
	c-0.6,0.3-1.3,0.5-2.1,0.7c-0.7,0.2-1.5,0.2-2.3,0.2c-1.2,0-2.3-0.2-3.5-0.5c-1.1-0.3-2.1-0.7-3.1-1.3c-1-0.6-1.8-1.2-2.6-2
	c-0.8-0.8-1.5-1.7-2-2.6c-0.6-1-1-2-1.3-3.1c-0.3-1.1-0.5-2.3-0.5-3.5c0-1.2,0.2-2.4,0.5-3.5c0.3-1.1,0.8-2.2,1.3-3.1
	c0.6-1,1.2-1.9,2-2.6c0.8-0.8,1.7-1.5,2.6-2c1-0.6,2-1,3.1-1.3c1.1-0.3,2.3-0.5,3.5-0.5c0.8,0,1.7,0.1,2.4,0.3
	c0.8,0.2,1.5,0.4,2.2,0.8c0.7,0.3,1.3,0.7,1.9,1.2c0.6,0.5,1.1,1,1.6,1.5l0.3-2.1c0.1-0.2,0.1-0.4,0.2-0.6c0.1-0.2,0.1-0.3,0.2-0.4
	c0.1-0.1,0.2-0.2,0.3-0.2c0.1,0,0.3,0,0.5,0h2c0.2,0,0.4,0,0.6,0.1c0.2,0,0.4,0.1,0.6,0.2c0.2,0.1,0.3,0.2,0.4,0.4
	c0.1,0.2,0.2,0.3,0.2,0.6V497.4z M794.4,485.9c0,1.1,0.2,2.1,0.6,3c0.4,1,0.9,1.8,1.6,2.5c0.7,0.7,1.4,1.3,2.3,1.7
	c0.9,0.4,1.9,0.6,2.9,0.6c1.1,0,2.1-0.2,3-0.6c0.9-0.4,1.8-1,2.4-1.7c0.7-0.7,1.2-1.5,1.6-2.5c0.4-1,0.6-2,0.6-3c0-1-0.2-2.1-0.6-3
	c-0.4-1-0.9-1.8-1.6-2.5c-0.7-0.7-1.5-1.3-2.4-1.7c-0.9-0.4-1.9-0.6-3-0.6c-1.1,0-2,0.2-2.9,0.6c-0.9,0.4-1.7,1-2.3,1.7
	c-0.7,0.7-1.2,1.5-1.6,2.5C794.6,483.8,794.4,484.8,794.4,485.9"/>
<path class="st0" d="M842.3,495.7c-0.5,0.5-1,0.9-1.5,1.3c-0.6,0.4-1.2,0.8-1.8,1.1c-0.6,0.3-1.3,0.5-2.1,0.7
	c-0.7,0.2-1.5,0.3-2.3,0.3c-1.8,0-3.5-0.3-5-1c-1.5-0.7-2.9-1.6-4-2.8c-1.2-1.2-2.1-2.6-2.7-4.2c-0.7-1.6-1-3.3-1-5.1
	c0-1.8,0.3-3.5,1-5.1c0.6-1.6,1.5-3,2.7-4.2c1.2-1.2,2.5-2.1,4-2.8c1.5-0.7,3.2-1,5-1c1.6,0,3,0.3,4.3,0.9c1.2,0.6,2.3,1.4,3.3,2.4
	v-9.1c0-0.3,0.1-0.6,0.3-0.9c0.2-0.2,0.5-0.3,0.9-0.3h3.3c0.3,0,0.6,0.1,0.9,0.3c0.3,0.2,0.4,0.5,0.4,0.9v30.4
	c0,0.8-0.4,1.2-1.3,1.2h-3c-0.4,0-0.7-0.1-0.8-0.3c-0.1-0.2-0.3-0.5-0.4-0.9L842.3,495.7z M827.5,486c0,1.1,0.2,2.1,0.6,3
	c0.4,1,0.9,1.8,1.6,2.5c0.7,0.7,1.4,1.3,2.3,1.7c0.9,0.4,1.9,0.6,2.9,0.6c1.1,0,2-0.2,3-0.6c0.9-0.4,1.7-1,2.4-1.6
	c0.7-0.7,1.2-1.5,1.6-2.4c0.4-0.9,0.6-1.9,0.6-3V486c0-1.1-0.2-2.1-0.6-3c-0.4-1-0.9-1.8-1.6-2.5c-0.7-0.7-1.5-1.3-2.4-1.7
	c-0.9-0.4-1.9-0.6-3-0.6c-1.1,0-2,0.2-2.9,0.6c-0.9,0.4-1.7,1-2.3,1.7c-0.7,0.7-1.2,1.6-1.6,2.5C827.7,483.9,827.5,484.9,827.5,486"
	/>
<path class="st0" d="M853.5,474.9l-0.1-0.3c0-0.1,0-0.2-0.1-0.3c0-0.1,0-0.2,0-0.2c0-0.3,0.1-0.5,0.3-0.6c0.2-0.2,0.4-0.2,0.8-0.2
	h3.6c0.3,0,0.6,0.1,0.8,0.2c0.2,0.2,0.4,0.4,0.5,0.7l0.4,0.9c0.3,0.8,0.6,1.6,0.9,2.6c0.3,0.9,0.7,1.9,1,2.9c0.4,1,0.7,2,1.1,3
	c0.4,1,0.7,1.9,1,2.8c0.3,0.9,0.6,1.6,0.9,2.3c0.3,0.7,0.5,1.2,0.6,1.5c0.2-0.7,0.5-1.4,0.8-2.3c0.3-0.8,0.6-1.7,1-2.7
	c0.3-1,0.7-1.9,1.1-2.9c0.4-1,0.7-2,1.1-3c0.3-1,0.7-1.9,1-2.8c0.3-0.9,0.6-1.7,0.8-2.4c0.1-0.3,0.3-0.5,0.5-0.7
	c0.2-0.1,0.5-0.2,0.8-0.2h3.7c0.4,0,0.7,0.1,0.8,0.2c0.2,0.1,0.2,0.3,0.2,0.5c0,0.1,0,0.2-0.1,0.4c0,0.2-0.1,0.3-0.1,0.4l-9.5,23
	c-0.1,0.2-0.2,0.4-0.4,0.5c-0.2,0.2-0.4,0.3-0.8,0.3h-1.8c-0.5,0-0.8-0.1-1-0.2c-0.2-0.2-0.3-0.3-0.4-0.5L853.5,474.9z"/>
<path class="st0" d="M882.6,465.6c0-0.8,0.4-1.2,1.2-1.2h3.3c0.4,0,0.7,0.1,0.9,0.3c0.2,0.2,0.3,0.5,0.3,0.9v3
	c0,0.3-0.1,0.6-0.3,0.9c-0.2,0.3-0.5,0.4-0.9,0.4h-3.3c-0.8,0-1.2-0.4-1.2-1.3V465.6z M882.6,474.5c0-0.3,0.1-0.6,0.3-0.9
	c0.2-0.2,0.5-0.4,0.9-0.4h3.3c0.2,0,0.3,0,0.5,0.1c0.2,0.1,0.3,0.1,0.4,0.3c0.1,0.1,0.2,0.2,0.3,0.4c0.1,0.1,0.1,0.3,0.1,0.5v22.9
	c0,0.8-0.4,1.2-1.3,1.2h-3.3c-0.8,0-1.2-0.4-1.2-1.2V474.5z"/>
<path class="st0" d="M899.9,491.4c0.3,0.4,0.6,0.8,1.1,1.1c0.4,0.3,0.9,0.6,1.3,0.8c0.4,0.2,0.9,0.4,1.3,0.5c0.4,0.1,0.7,0.1,1,0.1
	c0.4,0,0.8,0,1.3-0.1c0.5-0.1,1-0.2,1.4-0.4c0.4-0.2,0.8-0.5,1.1-0.8c0.3-0.4,0.5-0.8,0.5-1.3c0-0.5-0.1-1-0.4-1.3
	c-0.2-0.3-0.6-0.6-1-0.8c-0.4-0.2-0.9-0.4-1.4-0.5c-0.5-0.1-1.1-0.3-1.7-0.5c-1.4-0.4-2.6-0.8-3.6-1.3c-1-0.5-1.8-1.1-2.4-1.8
	c-0.6-0.7-1.1-1.4-1.4-2.2c-0.3-0.8-0.4-1.7-0.4-2.6c0-1.1,0.2-2.1,0.6-2.9c0.4-0.9,1-1.7,1.8-2.3c0.8-0.6,1.7-1.1,2.8-1.5
	c1.1-0.4,2.3-0.5,3.6-0.5c0.9,0,1.8,0.1,2.5,0.3c0.7,0.2,1.4,0.4,2,0.7c0.6,0.3,1.2,0.7,1.8,1.3c0.6,0.5,1.1,1.1,1.7,1.8
	c0.2,0.2,0.3,0.5,0.3,0.7c0,0.2-0.1,0.5-0.4,0.7c-0.2,0.2-0.4,0.4-0.7,0.6c-0.3,0.2-0.5,0.5-0.8,0.7c-0.3,0.2-0.5,0.4-0.8,0.6
	c-0.2,0.2-0.4,0.2-0.6,0.2c-0.3,0-0.6-0.2-0.9-0.5c-0.3-0.3-0.6-0.6-0.9-0.9c-0.3-0.3-0.6-0.5-0.9-0.6c-0.3-0.2-0.7-0.3-1-0.4
	c-0.4-0.1-0.8-0.1-1.2-0.1c-0.4,0-0.7,0.1-1.1,0.2c-0.4,0.1-0.7,0.3-1.1,0.5c-0.3,0.2-0.6,0.5-0.8,0.8c-0.2,0.3-0.3,0.6-0.3,1
	c0,0.4,0.1,0.8,0.4,1.1c0.3,0.3,0.6,0.6,1,0.8c0.4,0.2,0.9,0.4,1.4,0.6c0.5,0.1,0.9,0.3,1.4,0.4c1.2,0.3,2.3,0.7,3.4,1.2
	c1,0.5,1.9,1,2.6,1.6c0.7,0.6,1.3,1.4,1.7,2.3c0.4,0.9,0.6,1.9,0.6,3.1c0,1.2-0.2,2.3-0.7,3.3c-0.5,1-1.2,1.8-2,2.5
	c-0.9,0.7-1.9,1.2-3.1,1.6c-1.2,0.4-2.5,0.5-3.9,0.5c-0.8,0-1.7-0.1-2.5-0.3c-0.9-0.2-1.7-0.5-2.5-0.8c-0.8-0.4-1.5-0.9-2.2-1.5
	c-0.7-0.6-1.2-1.3-1.7-2.1c-0.2-0.3-0.3-0.6-0.3-0.9c0-0.2,0-0.3,0.1-0.4c0.1-0.1,0.2-0.2,0.3-0.4l2.2-1.7c0.2-0.1,0.4-0.2,0.5-0.2
	c0.2,0,0.4,0.1,0.5,0.2C899.6,491,899.7,491.2,899.9,491.4"/>
<path class="st0" d="M920.5,486c0-1.2,0.2-2.4,0.5-3.5c0.3-1.1,0.8-2.2,1.3-3.1c0.6-1,1.3-1.8,2.1-2.6c0.8-0.8,1.7-1.5,2.6-2
	c1-0.6,2-1,3.1-1.3c1.1-0.3,2.3-0.5,3.5-0.5c1.2,0,2.3,0.2,3.5,0.5c1.1,0.3,2.2,0.7,3.1,1.3c1,0.6,1.8,1.2,2.6,2
	c0.8,0.8,1.5,1.7,2.1,2.6c0.6,1,1,2,1.3,3.1c0.3,1.1,0.5,2.3,0.5,3.5c0,1.2-0.2,2.4-0.5,3.5c-0.3,1.1-0.8,2.2-1.3,3.1
	c-0.6,1-1.3,1.9-2.1,2.6c-0.8,0.8-1.7,1.5-2.6,2c-1,0.6-2,1-3.1,1.3c-1.1,0.3-2.3,0.5-3.5,0.5c-1.2,0-2.4-0.2-3.5-0.5
	c-1.1-0.3-2.1-0.7-3.1-1.3c-1-0.6-1.9-1.2-2.6-2c-0.8-0.8-1.5-1.7-2.1-2.6c-0.6-1-1-2-1.3-3.1C920.7,488.3,920.5,487.2,920.5,486
	 M926.1,486c0,1.1,0.2,2.1,0.6,3c0.4,1,0.9,1.8,1.6,2.5c0.7,0.7,1.5,1.3,2.4,1.7c0.9,0.4,1.9,0.6,3,0.6c1.1,0,2-0.2,2.9-0.6
	c0.9-0.4,1.7-1,2.3-1.7c0.6-0.7,1.2-1.5,1.5-2.5c0.4-1,0.5-2,0.5-3c0-1.1-0.2-2.1-0.5-3c-0.4-1-0.9-1.8-1.5-2.5
	c-0.7-0.7-1.4-1.3-2.3-1.7c-0.9-0.4-1.9-0.6-2.9-0.6c-1.1,0-2.1,0.2-3,0.6c-0.9,0.4-1.7,1-2.4,1.7c-0.7,0.7-1.2,1.6-1.6,2.5
	C926.3,483.9,926.1,484.9,926.1,486"/>
<path class="st0" d="M953.5,474.4c0-0.4,0.1-0.7,0.4-0.9c0.3-0.2,0.5-0.3,0.8-0.3h2.5c0.3,0,0.6,0.1,0.8,0.3
	c0.2,0.2,0.3,0.4,0.4,0.7c0.1,0.3,0.2,0.6,0.2,0.9c0,0.3,0.1,0.6,0.1,0.9c0.3-0.4,0.6-0.8,1-1.2c0.4-0.4,0.8-0.7,1.2-1
	c0.5-0.3,1-0.6,1.6-0.7c0.6-0.2,1.3-0.3,2-0.3c0.7,0,1.3,0,1.8,0.1c0.5,0.1,1,0.2,1.5,0.4c0.5,0.2,1,0.4,1.4,0.7
	c0.5,0.3,1,0.6,1.5,1c0.2,0.2,0.4,0.3,0.6,0.5c0.2,0.2,0.3,0.4,0.3,0.7c0,0.1,0,0.2-0.1,0.3c0,0.1-0.1,0.2-0.2,0.4l-1.6,2.6
	c-0.1,0.1-0.2,0.2-0.4,0.3c-0.1,0.1-0.3,0.1-0.4,0.1c-0.2,0-0.4-0.1-0.6-0.2c-0.4-0.2-0.8-0.5-1.2-0.7c-0.4-0.2-0.7-0.4-1.1-0.5
	c-0.3-0.2-0.7-0.3-1.1-0.4c-0.4-0.1-0.8-0.1-1.2-0.1c-1.2,0-2.2,0.4-3,1.1c-0.8,0.8-1.4,1.8-1.6,3.1v15c0,0.8-0.4,1.2-1.2,1.2h-3.3
	c-0.8,0-1.2-0.4-1.2-1.2V474.4z"/>
<path class="st0" d="M986.7,505.9c-0.1,0.3-0.3,0.5-0.5,0.6c-0.2,0.1-0.4,0.2-0.7,0.2h-3.8c-0.4,0-0.6-0.1-0.8-0.2
	c-0.1-0.1-0.2-0.3-0.2-0.5c0-0.1,0-0.2,0.1-0.4c0-0.2,0.1-0.3,0.1-0.3l3.5-8.9l-8.9-21.7c0,0,0,0,0-0.1v-0.2
	c-0.1-0.2-0.1-0.3-0.1-0.5c0-0.2,0.1-0.4,0.2-0.5c0.2-0.1,0.4-0.2,0.7-0.2h3.6c0.6,0,1,0.3,1.2,0.8l0.4,0.9c0.3,0.7,0.6,1.6,0.9,2.5
	c0.3,0.9,0.7,1.9,1,2.9c0.4,1,0.7,2,1.1,3c0.4,1,0.7,1.9,1,2.8c0.3,0.9,0.6,1.7,0.9,2.4c0.3,0.7,0.5,1.2,0.6,1.6l5.9-16
	c0.1-0.3,0.3-0.5,0.5-0.6c0.2-0.1,0.4-0.2,0.7-0.2h3.7c0.4,0,0.6,0.1,0.8,0.2c0.1,0.1,0.2,0.3,0.2,0.5c0,0.1,0,0.2-0.1,0.4
	c0,0.2-0.1,0.3-0.1,0.3L986.7,505.9z"/>
<path class="st1" d="M1103.3,186.8c0,0-14.1,24.8-38.7,25.5c1.8-2.2,3.4-4.6,4.5-7.3c2.1-4.5,3.1-9.3,3.2-14.3
	c0-2.2-0.1-4.5-0.5-6.7c0-0.1,0.1-0.4,0.2-0.5c9.5-16.5,10.8-32.1,10.9-39.6c0,0-5.9,14.2-15.5,26.9c-3.8-7.5-8.2-11.7-11.6-15
	c-1.8-1.7-3.3-3.1-4.4-4.6c-2.8-4.4-3.4-11-1.8-19.9l2.7-14.4c3.7-2.6,7.2-5.4,10.6-9c7.9-8.7,16.3-24,15.3-53.3
	c15.2,16.5,29.3,44.1,33,56.8C1123.8,156.2,1103.3,186.8,1103.3,186.8"/>
<path class="st1" d="M1060,190.5c0,1.8-0.2,5.4-2.1,9.5c-0.4,0.9-0.7,1.7-1.3,2.4c-0.9,1.6-2,2.8-3.2,3.9c-0.4-0.1-0.7-0.2-1-0.4
	c-7.3-2.7-11.6-6.4-14.3-9.4c-0.9-1.1-1.7-2.2-2.6-3.4c-5.1-7.9-7.6-18.1-7.6-18.1c-0.6,3.7-1.1,11,2,19.6c0.1,0.6,0.4,1.2,0.6,1.8
	c3.1,7.8,7.7,13,10.5,15.5c-1.1,0.2-2.2,0.4-3.2,0.5h-2.1c-15.5,0-21.9-16.6-21.9-16.6s-8.2-17.7,2-40c2.3-4.8,8.4-13.8,15.4-21
	c2.1-2.2,4.2-4.2,6.2-5.9c-2.8,15.2,0.2,23.8,3.7,28.8c4.8,7,11.2,9.3,16,20c0.4,0.9,0.7,1.7,1.1,2.7
	C1059.4,183.5,1060.2,186.8,1060,190.5"/>
<path class="st2" d="M37.5,185c0-2.6,0.5-4.8,1.6-6.5c1.1-1.7,3.6-2.6,7.6-2.6h25.8c2.9,0,5,0.9,6.3,2.6c1.3,1.8,2,3.7,2,5.7v134.4
	l66.5-71.9c1.3-1.3,2.6-2.3,4-3c1.4-0.7,3-1.1,4.9-1.1h34.6c2.2,0,3.9,0.5,5,1.4c1.1,0.9,1.7,2.1,1.7,3.6c0,1-0.2,1.9-0.5,2.7
	c-0.3,0.8-0.8,1.7-1.7,2.7L127.5,324l80.5,99.4h-0.3c1.1,1.1,1.9,2.3,2.3,3.6c0.5,1.3,0.7,2.4,0.7,3.2c0,1.7-0.5,2.9-1.5,3.5
	c-1,0.6-2.5,0.9-4.5,0.9h-38.5c-2.9,0-5.7-2.1-8.5-6.3l-58.4-76l-18.1,18.9v54.4c0,0.9-0.2,1.9-0.5,2.9c-0.3,1.1-0.8,2-1.4,2.9
	c-0.7,0.9-1.5,1.7-2.6,2.3c-1.1,0.6-2.5,0.9-4.1,0.9H45.8c-1.5,0-2.8-0.3-3.8-0.9c-1-0.6-1.9-1.4-2.6-2.3c-0.7-0.9-1.2-1.8-1.5-2.8
	c-0.3-1-0.5-1.7-0.5-2.3V185z"/>
<path class="st2" d="M421.1,425.6c0,1.8-0.4,3.3-1.1,4.5c-0.7,1.2-1.7,2.1-2.9,2.7c-1.2,0.6-2.6,1.1-4.2,1.4
	c-1.6,0.3-3.2,0.4-4.9,0.4h-18.9c-3.2,0-5.5-0.8-6.7-2.6c-1.3-1.7-2.2-3.9-2.8-6.5l-0.9-12.8c-3.5,3.5-7.4,6.8-11.7,9.9
	c-4.3,3.1-8.9,5.7-13.8,8c-4.9,2.3-10.2,4-15.7,5.3c-5.5,1.2-11.2,1.9-17.1,1.9c-9.1,0-17.8-1.2-26.2-3.6c-8.4-2.4-16.3-5.7-23.6-10
	c-7.4-4.3-14-9.4-20-15.5c-6-6-11.1-12.7-15.4-20.1c-4.3-7.4-7.6-15.3-10-23.7c-2.4-8.5-3.6-17.3-3.6-26.4c0-9.2,1.2-18,3.6-26.4
	c2.4-8.5,5.7-16.4,10-23.7c4.3-7.3,9.4-14,15.4-20c6-6,12.7-11.1,20-15.4c7.3-4.3,15.2-7.6,23.6-10c8.4-2.4,17.1-3.5,26.2-3.5
	c6.4,0,12.6,0.7,18.4,2c5.8,1.4,11.3,3.3,16.4,5.7c5.1,2.5,9.8,5.4,14.1,8.9c4.3,3.5,8.3,7.3,11.8,11.4l2.1-16.2
	c0.5-1.8,1-3.3,1.4-4.5c0.5-1.2,1-2.1,1.7-2.8c0.6-0.7,1.5-1.2,2.5-1.4c1-0.2,2.3-0.4,3.8-0.4h15.1c1.6,0,3.2,0.2,4.8,0.5
	c1.6,0.3,3.1,0.8,4.4,1.4c1.3,0.7,2.3,1.6,3.1,2.7c0.7,1.2,1.1,2.6,1.1,4.3V425.6z M264,338.5c0,8.1,1.4,15.7,4.2,22.9
	c2.8,7.2,6.7,13.5,11.8,19c5,5.4,11,9.7,17.7,12.9c6.8,3.2,14.2,4.8,22.3,4.8c8.2,0,15.8-1.6,22.9-4.8c7.1-3.2,13.3-7.5,18.5-12.9
	c5.2-5.4,9.4-11.8,12.4-19c3-7.2,4.5-14.8,4.5-22.9c0-8-1.5-15.5-4.5-22.7c-3-7.2-7.2-13.5-12.4-19c-5.2-5.4-11.4-9.8-18.5-13
	c-7.1-3.2-14.7-4.8-22.9-4.8c-8.1,0-15.5,1.6-22.3,4.8c-6.8,3.2-12.7,7.6-17.7,13c-5,5.4-9,11.8-11.8,19
	C265.4,322.9,264,330.5,264,338.5"/>
<path class="st2" d="M460.8,247.1c1.2-1.6,2.4-2.6,3.5-3c0.8-0.8,2-1.2,3.6-1.3c1.6-0.1,3.1-0.1,4.5-0.1h15.2c2.9,0,5.1,1,6.5,2.9
	c1.4,1.9,2.4,4,2.9,6.3l1.7,16c2.3-3.4,5.2-6.8,8.5-10.1c3.4-3.3,7.4-6.3,12-8.9c4.6-2.6,9.9-4.7,15.9-6.3
	c5.9-1.6,12.6-2.4,20.1-2.4c11.9,0,22.5,2.1,31.7,6.4c9.3,4.3,17.1,10.1,23.4,17.6c6.3,7.5,11.2,16.2,14.4,26.3
	c3.3,10.1,4.9,20.9,4.9,32.5v100.7c0,3.6-0.8,6.3-2.6,8.2c-1.7,1.8-4.2,2.7-7.4,2.7h-23c-4,0-6.7-0.7-8.1-2.3c-1.4-1.5-2-4.2-2-8
	V323.7c0-5.3-0.9-10.5-2.7-15.6c-1.8-5.1-4.5-9.6-7.9-13.7c-3.5-4-7.8-7.2-12.9-9.7c-5.1-2.4-11.1-3.6-17.8-3.6
	c-4.6,0-9.4,0.9-14.4,2.8c-5,1.9-9.5,4.5-13.7,7.9c-4.1,3.4-7.6,7.6-10.3,12.5c-2.7,4.9-4.1,10.4-4.2,16.5v97.9
	c0,1.9-0.1,3.8-0.3,5.7c-0.2,1.9-0.6,3.6-1.3,5.1c-0.7,1.5-1.6,2.7-2.8,3.6c-1.2,0.9-2.8,1.4-4.7,1.4h-24.9c-3.3,0-5.8-0.8-7.3-2.3
	c-1.6-1.6-2.3-3.8-2.3-6.7V251.6C459,250.2,459.6,248.7,460.8,247.1"/>
<path class="st2" d="M867,425.6c0,1.8-0.4,3.3-1.1,4.5c-0.7,1.2-1.7,2.1-2.9,2.7c-1.2,0.6-2.6,1.1-4.2,1.4c-1.6,0.3-3.2,0.4-4.9,0.4
	H835c-3.2,0-5.5-0.8-6.7-2.6c-1.3-1.7-2.2-3.9-2.8-6.5l-0.9-12.8c-3.5,3.5-7.4,6.8-11.7,9.9c-4.3,3.1-8.9,5.7-13.8,8
	c-4.9,2.3-10.2,4-15.7,5.3c-5.5,1.2-11.2,1.9-17.1,1.9c-9.1,0-17.8-1.2-26.2-3.6c-8.4-2.4-16.3-5.7-23.6-10c-7.4-4.3-14-9.4-20-15.5
	c-6-6-11.1-12.7-15.4-20.1c-4.3-7.4-7.6-15.3-10-23.7c-2.4-8.5-3.6-17.3-3.6-26.4c0-9.2,1.2-18,3.6-26.4c2.4-8.5,5.7-16.4,10-23.7
	c4.3-7.3,9.4-14,15.4-20c6-6,12.6-11.1,20-15.4c7.3-4.3,15.2-7.6,23.6-10c8.4-2.4,17.1-3.5,26.2-3.5c6.4,0,12.6,0.7,18.4,2
	c5.8,1.4,11.3,3.3,16.4,5.7c5.1,2.5,9.8,5.4,14.1,8.9c4.3,3.5,8.3,7.3,11.8,11.4l2.1-16.2c0.5-1.8,1-3.3,1.4-4.5
	c0.5-1.2,1-2.1,1.7-2.8c0.6-0.7,1.5-1.2,2.5-1.4c1-0.2,2.3-0.4,3.8-0.4h15.1c1.6,0,3.2,0.2,4.8,0.5c1.6,0.3,3.1,0.8,4.4,1.4
	c1.3,0.7,2.3,1.6,3.1,2.7c0.7,1.2,1.1,2.6,1.1,4.3V425.6z M709.9,338.5c0,8.1,1.4,15.7,4.2,22.9c2.8,7.2,6.7,13.5,11.8,19
	c5,5.4,11,9.7,17.7,12.9c6.8,3.2,14.2,4.8,22.3,4.8c8.2,0,15.8-1.6,22.9-4.8c7.1-3.2,13.3-7.5,18.5-12.9c5.2-5.4,9.4-11.8,12.4-19
	c3-7.2,4.5-14.8,4.5-22.9c0-8-1.5-15.5-4.5-22.7c-3-7.2-7.2-13.5-12.4-19c-5.2-5.4-11.4-9.8-18.5-13c-7.1-3.2-14.7-4.8-22.9-4.8
	c-8.1,0-15.5,1.6-22.3,4.8c-6.8,3.2-12.7,7.6-17.7,13c-5,5.4-9,11.8-11.8,19C711.4,322.9,709.9,330.5,709.9,338.5"/>
<path class="st2" d="M988.6,434.5c-8-0.1-15.4-1.3-22.4-3.6c-7-2.3-13.1-5.7-18.3-10.1c-5.2-4.4-9.3-9.8-12.3-16.2
	c-3-6.4-4.5-13.7-4.5-21.9v-24.9v-77.1h-17.4c-2.9,0-5.1-0.6-6.6-2c-1.5-1.3-2.2-3.5-2.2-6.5v-21.7c0-2.9,0.7-5,2.2-6.2
	c1.5-1.2,3.7-1.8,6.6-1.8H931c0-5.3,0-29.6,0.1-34.9c0-5.3,0.1-10.6,0.1-15.9c0-2,0.6-3.6,1.9-4.8c1.3-1.2,3.2-2.2,5.8-3.1
	c1.7-0.6,3.8-1.3,6.2-2.2c2.4-0.9,4.9-1.7,7.5-2.5c2.6-0.8,5.1-1.5,7.5-2c2.4-0.6,4.4-0.8,6-0.8c3.1,0,5.2,0.9,6.1,2.6
	c1,1.7,1.4,4,1.4,6.8c0,6.3,0,12.7-0.1,19c-0.1,6.3-0.1,31.6-0.1,37.9h21.7c2.6,0,4.6,0.7,6,2c1.4,1.4,2.1,3.5,2.1,6.4v20.6
	c0,3.2-0.7,5.5-2.1,6.9c-1.4,1.4-3.4,2.1-6,2.1h-21.7v16.6v12c0,3.5,0,6.7,0.1,9.8c0.1,3,0.1,6.3,0.1,9.8v12.1v16.6
	c0,0.2,0,0.4-0.1,0.6c-0.1,0.2-0.1,0.4-0.1,0.6v19.8c0,6.7,1.3,11.4,3.9,14.4c2.6,2.9,6.8,4.4,12.7,4.4c2.1,0,3.8,0.8,5,2.3
	c1.2,1.5,1.8,3.3,1.8,5.4v21c0,2.6-0.7,4.7-2.2,6.1C993.2,433.8,991.2,434.5,988.6,434.5"/>
<path class="st2" d="M1151.3,380.4c2.1,3.3,4.8,6.2,8,8.6c3.2,2.4,6.5,4.4,9.9,6c3.4,1.6,6.6,2.7,9.7,3.4c3.1,0.7,5.5,1.1,7.3,1.1
	c2.8,0,6.1-0.3,10-0.9c3.8-0.6,7.4-1.7,10.8-3.2c3.4-1.6,6.2-3.7,8.6-6.4c2.4-2.7,3.5-6.1,3.5-10.2c0-4-0.9-7.3-2.8-9.8
	c-1.9-2.5-4.4-4.6-7.5-6.3c-3.2-1.7-6.8-3-10.9-4.2c-4.1-1.1-8.4-2.3-12.9-3.6c-10.6-2.8-19.6-6.2-27-10.2
	c-7.4-4-13.6-8.5-18.3-13.7c-4.8-5.1-8.3-10.8-10.5-16.9c-2.2-6.1-3.3-12.8-3.3-20.1c0-8.2,1.6-15.6,4.8-22.4
	c3.2-6.7,7.8-12.5,13.6-17.4c5.8-4.8,12.9-8.6,21.1-11.3c8.2-2.7,17.3-4,27.3-4c7,0,13.3,0.6,18.9,1.9c5.5,1.3,10.7,3.1,15.4,5.7
	c4.7,2.5,9.2,5.7,13.4,9.5c4.2,3.8,8.4,8.3,12.8,13.4c1.5,1.8,2.3,3.6,2.3,5.3c0,1.8-1,3.5-3,5.1c-1.5,1.2-3.3,2.7-5.4,4.5
	c-2.1,1.8-4.1,3.6-6.1,5.3c-2,1.7-3.9,3.2-5.7,4.4c-1.8,1.2-3.3,1.8-4.5,1.8c-2.2,0-4.4-1.3-6.5-3.9c-2.2-2.6-4.4-4.9-6.6-6.9
	c-2.2-2-4.5-3.6-6.9-4.8c-2.4-1.3-5-2.2-7.9-2.9c-2.8-0.7-5.9-1-9.2-1c-2.7,0-5.6,0.4-8.5,1.2c-3,0.8-5.7,2-8.2,3.6
	c-2.5,1.6-4.5,3.5-6.2,5.8c-1.7,2.3-2.5,4.8-2.5,7.6c0,3.2,1,6,3.1,8.2c2.1,2.3,4.7,4.2,7.8,5.9c3.2,1.7,6.6,3,10.3,4.2
	c3.7,1.1,7.2,2.1,10.4,3c9.3,2.6,17.8,5.6,25.5,9.1c7.7,3.4,14.4,7.6,20,12.5c5.6,4.9,9.9,10.6,13,17.2c3.1,6.6,4.7,14.3,4.7,23.2
	c0,9.4-1.9,17.7-5.6,25.1c-3.7,7.4-8.9,13.7-15.4,18.8c-6.6,5.1-14.3,9.1-23.3,11.8c-9,2.7-18.8,4.1-29.4,4.1
	c-6.3,0-12.8-0.7-19.3-2c-6.5-1.4-12.8-3.5-18.8-6.4c-6-2.9-11.5-6.5-16.6-11c-5.1-4.5-9.3-9.8-12.8-15.9c-1.5-2.5-2.3-4.8-2.3-6.8
	c0-1.3,0.3-2.4,1-3.4c0.7-1,1.5-1.9,2.6-2.8l16.9-13c1.5-0.9,2.9-1.4,4.1-1.4c1.4,0,2.7,0.5,3.8,1.4
	C1148.7,377.6,1149.9,378.8,1151.3,380.4"/>
<path class="st2" d="M1084.4,245.3c-1.5-1.7-3.7-2.6-6.7-2.6h-15h-15c-3,0-5.2,0.9-6.7,2.6c-1.5,1.8-2.3,4-2.3,6.6l6.7,237.9
	c0,6,3,9,9.1,9h8.2h8.2c6.1,0,9.1-3,9.1-9l6.7-237.9C1086.7,249.3,1085.9,247.1,1084.4,245.3"/>
</svg>
